<svg version="1.0" xmlns="http://www.w3.org/2000/svg" xmlns:xlink="http://www.w3.org/1999/xlink" x="0px" y="0px" width="64px" height="64px" viewBox="0 0 64 64" enable-background="new 0 0 64 64" xml:space="preserve" id="nectar-svg-animation-instance-1" >
<path fill="none" stroke="#000000" stroke-width="2" stroke-miterlimit="10" d="M14,57A6,6 0,1,1 26,57A6,6 0,1,1 14,57" style="stroke-dasharray: 38, 40; stroke-dashoffset: 0;"></path>
<path fill="none" stroke="#000000" stroke-width="2" stroke-miterlimit="10" d="M38,57A6,6 0,1,1 50,57A6,6 0,1,1 38,57" style="stroke-dasharray: 38, 40; stroke-dashoffset: 0;"></path>
<path fill="none" stroke="#000000" stroke-width="2" stroke-miterlimit="10" d="M26,57L38,57" style="stroke-dasharray: 12, 14; stroke-dashoffset: 0;"></path>
<path fill="none" stroke="#000000" stroke-width="2" stroke-miterlimit="10" d="M14,57L10,2L0,2" style="stroke-dasharray: 66, 68; stroke-dashoffset: 0;"></path>
<path fill="none" stroke="#000000" stroke-width="2" stroke-miterlimit="10" d="M13,43L56,40L63,10L11,10" style="stroke-dasharray: 126, 128; stroke-dashoffset: 0;"></path>
<path fill="none" stroke="#000000" stroke-width="2" stroke-miterlimit="10" d="M20,10L22,4L32,4L34,10" style="stroke-dasharray: 23, 25; stroke-dashoffset: 0;"></path>
<path fill="none" stroke="#000000" stroke-width="2" stroke-miterlimit="10" d="M32,4L37,1L53,1L56,10" style="stroke-dasharray: 32, 34; stroke-dashoffset: 0;"></path>
</svg>